HIERARCHY
ROOT Hips
{
  OFFSET 5.72205e-005 65.662 3.42586
  CHANNELS 6 Xposition Yposition Zposition Zrotation Xrotation Yrotation
  JOINT Chest
  {
    OFFSET 0 8.7983 -4.7612
    CHANNELS 3 Zrotation Xrotation Yrotation
    JOINT Chest2
    {
      OFFSET 0 8.0291 0.4195
      CHANNELS 3 Zrotation Xrotation Yrotation
      JOINT Chest3
      {
        OFFSET 0 9.9351 -2.2114
        CHANNELS 3 Zrotation Xrotation Yrotation
        JOINT Neck
        {
          OFFSET 0 22.3885 -0.4656
          CHANNELS 3 Zrotation Xrotation Yrotation
          JOINT Head
          {
            OFFSET -0.0001 12.643 3.4389
            CHANNELS 3 Zrotation Xrotation Yrotation
            End Site
            {
              OFFSET 0.0001 17.6655 0.5274
            }
          }
        }
        JOINT LeftCollar
        {
          OFFSET 2.2603 21.606 7.4023
          CHANNELS 3 Zrotation Xrotation Yrotation
          JOINT LeftShoulder
          {
            OFFSET 13.5163 -1.1332 -5.0146
            CHANNELS 3 Zrotation Xrotation Yrotation
            JOINT LeftElbow
            {
              OFFSET -0.0995 -28.05 -0.2431
              CHANNELS 3 Zrotation Xrotation Yrotation
              JOINT LeftWrist
              {
                OFFSET 0.0679 -23.3996 -0.1402
                CHANNELS 3 Zrotation Xrotation Yrotation
                JOINT LeftFinger1
                {
                  OFFSET 0.7932 -9.069 2.5189
                  CHANNELS 3 Zrotation Xrotation Yrotation
                  JOINT LeftFinger11
                  {
                    OFFSET -0.8272 -3.3923 0.5977
                    CHANNELS 3 Zrotation Xrotation Yrotation
                    JOINT LeftFinger12
                    {
                      OFFSET -0.5649 -2.3158 0.4082
                      CHANNELS 3 Zrotation Xrotation Yrotation
                      End Site
                      {
                        OFFSET -0.4919 -1.6479 0.2673
                      }
                    }
                  }
                }
                JOINT LeftFinger2
                {
                  OFFSET 0.9159 -9.2044 0.2193
                  CHANNELS 3 Zrotation Xrotation Yrotation
                  JOINT LeftFinger21
                  {
                    OFFSET 0.0117 -4.1944 -0.0248
                    CHANNELS 3 Zrotation Xrotation Yrotation
                    JOINT LeftFinger22
                    {
                      OFFSET 0.0071 -2.3249 -0.0142
                      CHANNELS 3 Zrotation Xrotation Yrotation
                      End Site
                      {
                        OFFSET -0.1475 -2.0882 0.0028
                      }
                    }
                  }
                }
                JOINT LeftFinger3
                {
                  OFFSET 0.6113 -8.7231 -2.0637
                  CHANNELS 3 Zrotation Xrotation Yrotation
                  JOINT LeftFinger31
                  {
                    OFFSET -0.1927 -3.8059 -0.2383
                    CHANNELS 3 Zrotation Xrotation Yrotation
                    JOINT LeftFinger32
                    {
                      OFFSET -0.1091 -2.1688 -0.1362
                      CHANNELS 3 Zrotation Xrotation Yrotation
                      End Site
                      {
                        OFFSET -0.2358 -1.9176 -0.0906
                      }
                    }
                  }
                }
                JOINT LeftFinger4
                {
                  OFFSET -0.6151 -8.0947 -3.5641
                  CHANNELS 3 Zrotation Xrotation Yrotation
                  JOINT LeftFinger41
                  {
                    OFFSET -0.4882 -2.341 -0.6462
                    CHANNELS 3 Zrotation Xrotation Yrotation
                    JOINT LeftFinger42
                    {
                      OFFSET -0.3575 -1.7167 -0.4742
                      CHANNELS 3 Zrotation Xrotation Yrotation
                      End Site
                      {
                        OFFSET -0.4187 -1.5237 -0.3496
                      }
                    }
                  }
                }
                JOINT LeftFinger0
                {
                  OFFSET -1.42 -1.8761 1.4223
                  CHANNELS 3 Zrotation Xrotation Yrotation
                  JOINT LeftFinger01
                  {
                    OFFSET -1.1471 -3.4929 2.6334
                    CHANNELS 3 Zrotation Xrotation Yrotation
                    JOINT LeftFinger02
                    {
                      OFFSET -0.823 -2.3 1.6571
                      CHANNELS 3 Zrotation Xrotation Yrotation
                      End Site
                      {
                        OFFSET -0.5822 -1.6914 1.1582
                      }
                    }
                  }
                }
              }
            }
          }
        }
        JOINT RightCollar
        {
          OFFSET -2.2603 21.606 7.4023
          CHANNELS 3 Zrotation Xrotation Yrotation
          JOINT RightShoulder
          {
            OFFSET -13.5187 -1.1334 -5.0155
            CHANNELS 3 Zrotation Xrotation Yrotation
            JOINT RightElbow
            {
              OFFSET 0.0994 -28.0499 -0.2431
              CHANNELS 3 Zrotation Xrotation Yrotation
              JOINT RightWrist
              {
                OFFSET -0.0679 -23.3996 -0.1402
                CHANNELS 3 Zrotation Xrotation Yrotation
                JOINT RightFinger1
                {
                  OFFSET -0.7932 -9.0691 2.5189
                  CHANNELS 3 Zrotation Xrotation Yrotation
                  JOINT RightFinger11
                  {
                    OFFSET 0.8272 -3.3923 0.5977
                    CHANNELS 3 Zrotation Xrotation Yrotation
                    JOINT RightFinger12
                    {
                      OFFSET 0.565 -2.3158 0.4082
                      CHANNELS 3 Zrotation Xrotation Yrotation
                      End Site
                      {
                        OFFSET 0.4919 -1.6479 0.2673
                      }
                    }
                  }
                }
                JOINT RightFinger2
                {
                  OFFSET -0.916 -9.2044 0.2193
                  CHANNELS 3 Zrotation Xrotation Yrotation
                  JOINT RightFinger21
                  {
                    OFFSET -0.0117 -4.1944 -0.0248
                    CHANNELS 3 Zrotation Xrotation Yrotation
                    JOINT RightFinger22
                    {
                      OFFSET -0.0071 -2.3249 -0.0142
                      CHANNELS 3 Zrotation Xrotation Yrotation
                      End Site
                      {
                        OFFSET 0.1475 -2.0882 0.0028
                      }
                    }
                  }
                }
                JOINT RightFinger3
                {
                  OFFSET -0.6113 -8.7231 -2.0637
                  CHANNELS 3 Zrotation Xrotation Yrotation
                  JOINT RightFinger31
                  {
                    OFFSET 0.1927 -3.8059 -0.2383
                    CHANNELS 3 Zrotation Xrotation Yrotation
                    JOINT RightFinger32
                    {
                      OFFSET 0.1091 -2.1688 -0.1362
                      CHANNELS 3 Zrotation Xrotation Yrotation
                      End Site
                      {
                        OFFSET 0.2358 -1.9176 -0.0906
                      }
                    }
                  }
                }
                JOINT RightFinger4
                {
                  OFFSET 0.6151 -8.0947 -3.564
                  CHANNELS 3 Zrotation Xrotation Yrotation
                  JOINT RightFinger41
                  {
                    OFFSET 0.4882 -2.341 -0.6462
                    CHANNELS 3 Zrotation Xrotation Yrotation
                    JOINT RightFinger42
                    {
                      OFFSET 0.3574 -1.7166 -0.4742
                      CHANNELS 3 Zrotation Xrotation Yrotation
                      End Site
                      {
                        OFFSET 0.4187 -1.5237 -0.3496
                      }
                    }
                  }
                }
                JOINT RightFinger0
                {
                  OFFSET 1.4199 -1.8761 1.4221
                  CHANNELS 3 Zrotation Xrotation Yrotation
                  JOINT RightFinger01
                  {
                    OFFSET 1.1472 -3.4929 2.6336
                    CHANNELS 3 Zrotation Xrotation Yrotation
                    JOINT RightFinger02
                    {
                      OFFSET 0.8229 -2.3 1.6571
                      CHANNELS 3 Zrotation Xrotation Yrotation
                      End Site
                      {
                        OFFSET 0.5822 -1.6914 1.1582
                      }
                    }
                  }
                }
              }
            }
          }
        }
      }
    }
  }
  JOINT RightHip
  {
    OFFSET -9.412 3.9771 -0.7758
    CHANNELS 3 Zrotation Xrotation Yrotation
    JOINT RightKnee
    {
      OFFSET -0.7531 -40.938 0
      CHANNELS 3 Zrotation Xrotation Yrotation
      JOINT RightAnkle
      {
        OFFSET 0 -40.1986 0
        CHANNELS 3 Zrotation Xrotation Yrotation
        JOINT RightToe
        {
          OFFSET 0 -4.4182 9.239
          CHANNELS 3 Zrotation Xrotation Yrotation
          End Site
          {
            OFFSET 0 0 6.1981
          }
        }
      }
    }
  }
  JOINT LeftHip
  {
    OFFSET 9.4119 3.9773 -0.7758
    CHANNELS 3 Zrotation Xrotation Yrotation
    JOINT LeftKnee
    {
      OFFSET 0.7532 -40.9383 0
      CHANNELS 3 Zrotation Xrotation Yrotation
      JOINT LeftAnkle
      {
        OFFSET 0 -40.1986 0
        CHANNELS 3 Zrotation Xrotation Yrotation
        JOINT LeftToe
        {
          OFFSET 0 -4.4182 9.239
          CHANNELS 3 Zrotation Xrotation Yrotation
          End Site
          {
            OFFSET 0 0 6.1981
          }
        }
      }
    }
  }
}
MOTION
Frames:	6
Frame Time:	0.0333333
5.72205e-005 65.662 3.42586 0 0 -0 0 0 -0 0 0 -0 0 0 -0 0 0 -0 0 0 -0 0 0 -12.5014 88.1196 14.2451 10.6914 -0.00160068 -0.00239207 0.000740045 -8.4365e-005 7.00714e-005 -9.52055e-007 9.93923e-017 -1.98785e-016 -1.59028e-015 9.93923e-017 -5.96354e-016 -1.59028e-015 -9.93923e-017 -5.96354e-016 -1.59028e-015 9.93923e-017 -1.98785e-016 -1.59028e-015 -0.0128176 0.00232552 8.52707e-005 9.93923e-017 5.96354e-016 -0 9.93923e-017 -1.98785e-016 -1.59028e-015 -0.0160551 0.00299681 0.000857156 -2.48481e-016 0 3.18055e-015 9.93923e-017 -1.98785e-016 -1.59028e-015 -0.0125865 0.0031206 0.00282719 0 1.98785e-016 -0 9.93923e-017 -1.98785e-016 -1.59028e-015 9.93923e-017 -5.96354e-016 -1.59028e-015 -9.93923e-017 -5.96354e-016 -1.59028e-015 -0.865644 0.16582 7.03859 -88.0329 10.2057 -10.5567 0.0015593 -0.00248883 -0.000788628 7.87605e-005 4.10553e-005 1.24965e-005 -3.97569e-016 -7.95139e-016 3.18055e-015 -1.98785e-016 -3.97569e-016 3.18055e-015 -1.98785e-016 0 3.18055e-015 -3.97569e-016 -7.95139e-016 3.18055e-015 0.0129473 0.00231697 -8.70038e-005 9.93923e-017 -7.95139e-016 1.59028e-015 -3.97569e-016 -7.95139e-016 3.18055e-015 0.0163314 0.00303369 -0.000872333 3.97569e-016 7.95139e-016 -3.18055e-015 -3.97569e-016 -7.95139e-016 3.18055e-015 0.0145763 0.00367772 -0.00326275 9.93923e-017 -3.97569e-016 -0 -3.97569e-016 -7.95139e-016 3.18055e-015 -1.98785e-016 -3.97569e-016 3.18055e-015 -1.98785e-016 0 3.18055e-015 3.42482 1.32465 -0.0626183 0.000117508 0.717283 0.000978199 -3.4257 -2.04197 -0.0604716 6.47761e-025 0 -0 -3.42483 1.34017 0.0627307 -0.000193936 0.682302 -0.0013703 3.42574 -2.02253 0.0595886 -8.45714e-024 0 -7.40531e-025 
-0.139681 1.1777 10.1443 0.645986 -48.0242 -1.50211 -0.542787 6.93572 -0.821035 -0.995623 13.8782 -1.59302 -0.995626 13.8783 -1.59302 1.21955 6.33544 -0.296917 -0.812444 -33.422 -2.62663 5.52096 7.82451 -23.8222 48.2827 -46.4099 3.56283 58.6474 -24.6006 70.18 -61.7244 8.21161 44.8498 1.45397e-006 -2.02249e-006 8.33986e-006 -1.27222e-014 3.47873e-016 -3.67752e-015 -4.13804e-033 -2.98177e-016 -7.95139e-016 1.45397e-006 -2.02249e-006 8.33986e-006 -0.0128626 0.00231919 8.89177e-005 3.18055e-015 2.38542e-015 -9.93923e-017 1.45397e-006 -2.02249e-006 8.33986e-006 -0.016072 0.003003 0.000861986 6.36111e-015 3.926e-015 1.83876e-015 1.45397e-006 -2.02249e-006 8.33986e-006 -0.0126451 0.00313088 0.00283585 1.59028e-014 -5.96354e-016 -1.49089e-016 1.45397e-006 -2.02249e-006 8.33986e-006 -1.27222e-014 3.47873e-016 -3.67752e-015 -4.13804e-033 -2.98177e-016 -7.95139e-016 -9.56385 7.10136 9.43362 -0.159696 11.3243 -10.672 2.5832 0.614118 -53.9503 -39.8035 -12.41 -20.1726 -9.71762e-006 -5.0688e-006 6.6762e-006 3.53113e-031 -3.18055e-015 6.36111e-015 9.54166e-015 9.54166e-015 3.18055e-015 -9.71762e-006 -5.0688e-006 6.6762e-006 0.0129603 0.00233219 -9.40789e-005 -3.18055e-015 -1.59028e-015 -0 -9.71762e-006 -5.0688e-006 6.6762e-006 0.0163597 0.00304227 -0.000865068 1.27222e-014 -7.95139e-015 -0 -9.71762e-006 -5.0688e-006 6.6762e-006 0.0146058 0.00369777 -0.00326976 1.27222e-014 1.59028e-015 -3.18055e-015 -9.71762e-006 -5.0688e-006 6.6762e-006 3.53113e-031 -3.18055e-015 6.36111e-015 9.54166e-015 9.54166e-015 3.18055e-015 -3.55518 -78.1266 19.5071 -177.122 82.4341 175.886 23.1943 23.4552 1.86315 -2.36625e-008 -4.27831e-007 -2.11768e-007 6.65173 -78.3093 -13.2806 179.17 79.0352 -177.749 -25.5446 17.5488 0.624747 8.72185e-007 7.89772e-007 7.59989e-008 
-0.139681 1.1777 10.1443 0.645986 -48.0242 -1.50211 -0.542787 6.93572 -0.821035 -0.995623 13.8782 -1.59302 -0.995626 13.8783 -1.59302 1.34916 6.31575 -0.333123 -0.812442 -33.422 -2.62663 5.6626 7.83059 -23.6961 48.2827 -46.4099 3.56281 58.4791 -24.928 70.1154 -61.3845 8.0088 44.8248 1.88232e-006 -6.23634e-007 -1.70562e-006 9.54166e-015 2.48481e-016 2.78299e-015 7.70171e-006 1.34477e-005 -2.18557e-006 1.88232e-006 -6.23634e-007 -1.70562e-006 -0.012789 0.00232327 7.70004e-005 1.88175e-006 -3.34231e-006 -1.70553e-006 1.88232e-006 -6.23634e-007 -1.70562e-006 -0.016018 0.00298836 0.000854469 -3.18055e-015 3.08116e-015 -2.08724e-015 1.88232e-006 -6.23634e-007 -1.70562e-006 -0.0125885 0.00312142 0.00283053 7.99571e-006 7.06452e-007 -5.17325e-007 1.88232e-006 -6.23634e-007 -1.70562e-006 9.54166e-015 2.48481e-016 2.78299e-015 7.70171e-006 1.34477e-005 -2.18557e-006 -9.56385 7.10136 9.43362 -0.159699 11.3243 -10.672 2.58323 0.614133 -53.9503 -39.8035 -12.41 -20.1726 3.18055e-015 1.27222e-014 9.54166e-015 3.18055e-015 -1.59028e-015 -3.18055e-015 6.36111e-015 9.54166e-015 -0 3.18055e-015 1.27222e-014 9.54166e-015 0.0129431 0.0023211 -9.58046e-005 -6.36111e-015 -1.59028e-015 -6.36111e-015 3.18055e-015 1.27222e-014 9.54166e-015 0.0162989 0.00303652 -0.000881042 -3.80803e-006 4.39635e-006 2.96257e-006 3.18055e-015 1.27222e-014 9.54166e-015 0.0146 0.00369494 -0.0032787 1.27222e-014 -4.77083e-015 3.18055e-015 3.18055e-015 1.27222e-014 9.54166e-015 3.18055e-015 -1.59028e-015 -3.18055e-015 6.36111e-015 9.54166e-015 -0 -3.555 -78.1262 19.5073 -177.122 82.4344 175.886 23.1943 23.4552 1.86315 -4.73249e-008 -3.0667e-009 -4.23537e-007 6.65173 -78.3093 -13.2806 179.17 79.0352 -177.749 -25.5446 17.5488 0.624747 8.72185e-007 7.89772e-007 7.59989e-008 
-0.139681 1.1777 10.1443 0.645986 -48.0242 -1.50211 -0.542787 6.93573 -0.821034 -0.995623 13.8782 -1.59302 -0.995626 13.8783 -1.59302 1.47879 6.29597 -0.369293 -0.812445 -33.422 -2.62663 5.8043 7.83698 -23.5699 48.2827 -46.4099 3.56283 58.3098 -25.2559 70.0496 -61.0441 7.80564 44.801 1.36555e-031 4.37326e-015 -1.78906e-015 6.36111e-015 1.2921e-015 -3.97569e-016 1.33624e-031 3.08116e-015 -2.48481e-015 1.36555e-031 4.37326e-015 -1.78906e-015 -0.0128625 0.00231852 8.99382e-005 -3.85557e-006 1.16426e-005 -2.94115e-006 1.36555e-031 4.37326e-015 -1.78906e-015 -0.0160318 0.00299513 0.000858023 -7.40781e-006 -1.80237e-005 3.84807e-006 1.36555e-031 4.37326e-015 -1.78906e-015 -0.0126033 0.00311708 0.00282327 -9.58141e-006 -1.26624e-005 3.8932e-006 1.36555e-031 4.37326e-015 -1.78906e-015 6.36111e-015 1.2921e-015 -3.97569e-016 1.33624e-031 3.08116e-015 -2.48481e-015 -9.56385 7.10136 9.43362 -0.15971 11.3243 -10.672 2.58324 0.614138 -53.9503 -39.8035 -12.41 -20.1726 2.1711e-006 4.39905e-006 -1.49648e-006 -1.27222e-014 0 6.36111e-015 -1.27222e-014 -4.77083e-015 3.18055e-015 2.1711e-006 4.39905e-006 -1.49648e-006 0.0129633 0.00230744 -8.54544e-005 6.36111e-015 -1.27222e-014 3.18055e-015 2.1711e-006 4.39905e-006 -1.49648e-006 0.0163059 0.00302863 -0.000873354 1.90833e-014 1.59028e-015 -3.18055e-015 2.1711e-006 4.39905e-006 -1.49648e-006 0.0145677 0.00368114 -0.00325527 -7.96465e-006 -8.34374e-006 5.38825e-006 2.1711e-006 4.39905e-006 -1.49648e-006 -1.27222e-014 0 6.36111e-015 -1.27222e-014 -4.77083e-015 3.18055e-015 -3.55509 -78.1264 19.5072 -177.122 82.4342 175.886 23.1943 23.4552 1.86316 -1.36485e-006 3.35713e-007 -7.10353e-007 6.65191 -78.3092 -13.2805 179.17 79.0353 -177.749 -25.5446 17.5488 0.624734 1.93815e-015 3.18055e-015 -7.95139e-016 
-0.139681 1.1777 10.1443 0.645986 -48.0242 -1.50211 -0.542786 6.93572 -0.821036 -0.995623 13.8782 -1.59302 -0.995626 13.8783 -1.59302 1.60844 6.27611 -0.405426 -0.812445 -33.422 -2.62663 5.94606 7.84368 -23.4437 48.2827 -46.41 3.56283 58.1392 -25.5842 69.9823 -60.7034 7.60182 44.7783 3.18055e-015 6.95746e-015 -2.38542e-015 -2.36628e-006 -1.1063e-005 4.73382e-006 6.36111e-015 -2.98177e-016 -0 3.18055e-015 6.95746e-015 -2.38542e-015 -0.0127971 0.00233129 9.31471e-005 -5.23054e-006 -4.55279e-006 3.79008e-006 3.18055e-015 6.95746e-015 -2.38542e-015 -0.0160488 0.00300192 0.000868339 -7.10864e-006 -4.10105e-006 5.51125e-006 3.18055e-015 6.95746e-015 -2.38542e-015 -0.0126183 0.00313004 0.00283948 3.18055e-015 2.5842e-015 -5.26779e-015 3.18055e-015 6.95746e-015 -2.38542e-015 -2.36628e-006 -1.1063e-005 4.73382e-006 6.36111e-015 -2.98177e-016 -0 -9.56385 7.10135 9.43362 -0.159701 11.3243 -10.672 2.58325 0.614143 -53.9503 -39.8035 -12.41 -20.1726 -6.36111e-015 -4.77083e-015 -0 -1.76556e-031 -3.18055e-015 -3.18055e-015 -9.54166e-015 -1.11319e-014 -0 -6.36111e-015 -4.77083e-015 -0 0.0129652 0.00231554 -7.37177e-005 3.18055e-015 4.77083e-015 -0 -6.36111e-015 -4.77083e-015 -0 0.0163095 0.00302585 -0.000863828 8.82781e-032 -1.59028e-015 3.18055e-015 -6.36111e-015 -4.77083e-015 -0 0.0145488 0.00367858 -0.00325081 3.18055e-015 1.59028e-015 -0 -6.36111e-015 -4.77083e-015 -0 -1.76556e-031 -3.18055e-015 -3.18055e-015 -9.54166e-015 -1.11319e-014 -0 -3.55511 -78.1264 19.5072 -177.122 82.4342 175.886 23.1943 23.4552 1.86316 -4.47063e-007 3.43105e-007 -1.66195e-007 6.65173 -78.3093 -13.2806 179.17 79.0352 -177.749 -25.5446 17.5488 0.624761 -6.97554e-008 4.30754e-009 -4.20721e-007 
-0.139681 1.1777 10.1443 0.645986 -48.0242 -1.50211 -0.542787 6.93572 -0.821036 -0.995623 13.8782 -1.59302 -0.995626 13.8783 -1.59302 1.7381 6.25616 -0.441525 -0.812447 -33.422 -2.62663 6.08789 7.8507 -23.3175 48.2828 -46.4099 3.56285 57.9675 -25.9128 69.9138 -60.3621 7.39749 44.7568 1.8762e-006 -3.28256e-006 -1.72898e-006 9.54166e-015 4.87022e-015 -1.49089e-015 4.83373e-006 1.17675e-005 -3.11481e-006 1.8762e-006 -3.28256e-006 -1.72898e-006 -0.0128503 0.00232852 8.69398e-005 -3.18055e-015 1.78906e-015 1.19271e-015 1.8762e-006 -3.28256e-006 -1.72898e-006 -0.0160317 0.00300141 0.000860135 -7.99662e-006 -5.92145e-006 5.00501e-007 1.8762e-006 -3.28256e-006 -1.72898e-006 -0.0126203 0.00312228 0.00283731 3.35204e-006 2.391e-005 -2.04893e-006 1.8762e-006 -3.28256e-006 -1.72898e-006 9.54166e-015 4.87022e-015 -1.49089e-015 4.83373e-006 1.17675e-005 -3.11481e-006 -9.56385 7.10136 9.43362 -0.1597 11.3243 -10.672 2.58324 0.614151 -53.9503 -39.8035 -12.41 -20.1726 -9.54166e-015 -4.77083e-015 -0 -1.59028e-014 -4.77083e-015 -0 -1.90833e-014 1.59028e-015 9.54166e-015 -9.54166e-015 -4.77083e-015 -0 0.0129387 0.00231237 -9.29882e-005 -6.36111e-015 -6.36111e-015 -0 -9.54166e-015 -4.77083e-015 -0 0.0163042 0.0030316 -0.000884901 -5.29669e-031 -4.77083e-015 -6.36111e-015 -9.54166e-015 -4.77083e-015 -0 0.0145664 0.00367864 -0.00326777 -1.76556e-031 -3.18055e-015 -3.18055e-015 -9.54166e-015 -4.77083e-015 -0 -1.59028e-014 -4.77083e-015 -0 -1.90833e-014 1.59028e-015 9.54166e-015 -3.55517 -78.1266 19.5071 -177.122 82.434 175.886 23.1943 23.4552 1.86316 2.36624e-008 3.0667e-009 2.11768e-007 6.65195 -78.3093 -13.2804 179.17 79.0352 -177.749 -25.5446 17.5488 0.62475 8.72185e-007 2.43097e-006 7.59989e-008 
